<?xml version="1.0" encoding="utf-8"?>
<!-- Generator: Adobe Illustrator 24.0.3, SVG Export Plug-In . SVG Version: 6.00 Build 0)  -->
<svg version="1.1" id="Gruppe_24479" xmlns="http://www.w3.org/2000/svg" xmlns:xlink="http://www.w3.org/1999/xlink" x="0px"
	 y="0px" width="105px" height="18px" viewBox="0 0 105 18" enable-background="new 0 0 105 18" xml:space="preserve">
<path id="Pfad_1" d="M28.516,11.827h-10.17c0.425,1.147,1.233,1.822,2.383,2.019c1.772,0.298,3.435-0.057,4.969-0.998
	c0.124-0.076,0.254-0.136,0.434-0.235c0.605,1.043,1.22,2.098,1.841,3.169c-1.179,0.891-2.494,1.439-3.914,1.768
	c-1.188,0.276-2.396,0.285-3.594,0.2c-2.006-0.143-3.79-0.849-5.128-2.431c-0.856-1.011-1.413-2.177-1.642-3.489
	c-0.26-1.515-0.177-3.008,0.361-4.459c0.574-1.537,1.588-2.716,2.963-3.594c1.597-1.017,3.375-1.22,5.201-1.084
	c1.296,0.098,2.519,0.507,3.603,1.264c1.486,1.043,2.39,2.459,2.725,4.243C28.773,9.4,28.747,10.591,28.516,11.827z M24.168,8.554
	c-0.203-1.03-1.264-2.215-3.172-2.114c-1.242,0.067-2.443,0.948-2.687,2.114H24.168z"/>
<path id="Pfad_2" fill="#D70F37" d="M91.845,11.802H81.678c0.139,0.599,0.475,1.039,0.906,1.388
	c0.672,0.545,1.464,0.732,2.329,0.757c1.645,0.048,3.118-0.434,4.519-1.334c0.618,1.062,1.226,2.114,1.838,3.166
	c-1.306,0.973-2.735,1.607-4.313,1.816c-1.055,0.139-2.142,0.215-3.201,0.143c-1.924-0.136-3.66-0.795-4.976-2.294
	c-0.954-1.084-1.562-2.336-1.778-3.781c-0.216-1.464-0.149-2.9,0.38-4.285c0.608-1.588,1.651-2.824,3.134-3.689
	c1.553-0.906,3.248-1.122,4.985-0.982c1.981,0.158,3.698,0.951,4.998,2.5c0.846,1.008,1.306,2.193,1.42,3.502
	c0.054,0.593,0.076,1.192,0.07,1.787C91.984,10.927,91.899,11.355,91.845,11.802z M87.497,8.55
	c-0.276-1.122-1.303-2.275-3.337-2.104c-1.252,0.105-2.313,0.967-2.513,2.104H87.497z"/>
<path id="Pfad_3" fill="#D70F37" d="M61.443,17.433v-0.434c0-2.646-0.019-5.292,0.01-7.936c0.013-1.068,0.225-2.111,0.7-3.087
	c0.773-1.588,2.082-2.504,3.736-2.992c1.125-0.33,2.285-0.364,3.435-0.282C70.691,2.798,72,3.169,73.093,4.041
	c1.135,0.9,1.829,2.098,2.079,3.524c0.108,0.618,0.146,1.255,0.152,1.882c0.016,2.51,0.006,5.02,0.006,7.533v0.46H70.7v-0.418
	c0-2.462,0.016-4.925-0.013-7.384c-0.006-0.494-0.098-0.982-0.273-1.445c-0.396-1.024-1.604-1.486-2.783-1.135
	c-0.83,0.25-1.48,1.154-1.48,2.082c-0.003,2.608-0.003,5.216,0,7.825v0.469L61.443,17.433z"/>
<path id="Pfad_4" d="M45.864,3.065h4.719v0.431c0,2.583,0,5.166,0.003,7.749c0,0.71,0.219,1.344,0.776,1.803
	c0.716,0.593,1.543,0.659,2.386,0.345c0.77-0.288,1.179-0.903,1.287-1.699c0.067-0.479,0.076-0.97,0.079-1.455
	c0.01-2.241,0.003-4.481,0.003-6.722V3.071h4.63c0.006,0.133,0.016,0.254,0.016,0.374c0,2.814,0.067,5.635-0.019,8.446
	c-0.07,2.272-1.074,4.091-3.153,5.175c-0.78,0.412-1.638,0.65-2.519,0.7c-0.656,0.035-1.315,0.105-1.968,0.063
	c-1.727-0.111-3.324-0.602-4.564-1.889c-0.868-0.903-1.388-2.003-1.518-3.245c-0.108-1.027-0.139-2.06-0.152-3.093
	c-0.022-2.031-0.006-4.063-0.006-6.097V3.065z"/>
<path id="Pfad_5" d="M44.726,6.934l-3.705,1.949c-0.285-0.323-0.551-0.662-0.856-0.967c-1.512-1.512-4.573-1.116-5.305,1.293
	c-0.383,1.255-0.162,2.456,0.786,3.385c1.001,0.982,2.339,1.163,3.654,0.58c0.713-0.317,1.236-0.833,1.623-1.553
	c0.621,0.364,1.233,0.716,1.841,1.078c0.52,0.307,1.027,0.634,1.553,0.925c0.282,0.158,0.371,0.273,0.168,0.596
	c-1.268,2.035-3.109,3.156-5.454,3.473c-1.746,0.235-3.464,0.105-5.055-0.707c-1.214-0.615-2.193-1.515-2.887-2.71
	c-0.532-0.922-0.824-1.905-0.951-2.963c-0.165-1.394-0.051-2.754,0.447-4.066c0.441-1.166,1.163-2.126,2.13-2.922
	c0.78-0.643,1.654-1.074,2.611-1.344c1.179-0.33,2.38-0.374,3.597-0.235c1.375,0.155,2.608,0.631,3.708,1.474
	C43.56,4.934,44.244,5.834,44.726,6.934z"/>
<path id="Pfad_6" d="M0,15.367c0.65-0.992,1.264-1.927,1.873-2.865c0.155-0.241,0.254-0.32,0.542-0.086
	c1.245,1.024,2.653,1.667,4.31,1.578c0.216-0.016,0.425-0.063,0.627-0.139c0.301-0.105,0.52-0.295,0.542-0.653
	c0.022-0.364-0.222-0.545-0.482-0.656c-0.586-0.244-1.195-0.434-1.791-0.656c-0.989-0.371-2.019-0.634-2.909-1.239
	C1.528,9.847,0.935,8.753,0.897,7.305C0.865,6.132,1.211,5.128,2,4.297C2.703,3.556,3.613,3.046,4.614,2.84
	c2.174-0.463,4.304-0.364,6.3,0.729c0.472,0.257,0.906,0.58,1.398,0.897c-0.507,0.776-0.973,1.489-1.439,2.206
	c-0.152,0.231-0.317,0.456-0.45,0.697c-0.111,0.203-0.203,0.209-0.396,0.086c-0.776-0.491-1.6-0.9-2.516-1.039
	c-0.409-0.06-0.824-0.054-1.23,0.019C5.825,6.513,5.565,6.82,5.562,7.127C5.559,7.406,5.869,7.774,6.237,7.894
	C6.782,8.075,7.34,8.23,7.882,8.417c1.15,0.393,2.298,0.792,3.296,1.524c0.856,0.631,1.331,1.455,1.445,2.523
	c0.098,0.916-0.01,1.775-0.425,2.592c-0.551,1.087-1.442,1.794-2.545,2.266c-1.394,0.599-2.871,0.599-4.332,0.494
	c-1.623-0.117-3.109-0.713-4.427-1.68C0.583,15.912,0.307,15.637,0,15.367z"/>
<path id="Pfad_7" fill="#D70F37" d="M95.008,6.959H92.83V3.071h2.244V0h4.621v3.049h4.465V6.95h-4.424
	c-0.01,0.139-0.025,0.247-0.025,0.352c-0.003,1.493-0.01,2.989,0.003,4.481c0.006,0.463,0.13,0.906,0.463,1.264
	c0.634,0.685,1.413,0.596,2.193,0.39c0.463-0.12,0.906-0.32,1.398-0.498c0.406,1.214,0.818,2.443,1.233,3.686
	c-0.7,0.517-1.499,0.767-2.307,0.951c-1.493,0.345-2.998,0.421-4.488-0.041c-1.572-0.488-2.478-1.6-2.906-3.15
	c-0.231-0.837-0.307-1.686-0.298-2.554C95.02,10.23,95.008,8.626,95.008,6.959z"/>
</svg>
