<?xml version="1.0" encoding="UTF-8"?><svg id="a" xmlns="http://www.w3.org/2000/svg" viewBox="0 0 29.33 15.29"><defs><style>.d{fill:#d70f37;}</style></defs><path id="b" class="d" d="m15.44,14.85v-.43c0-2.65-.02-5.29,0-7.94.01-1.07.22-2.11.7-3.09.77-1.59,2.08-2.5,3.74-2.99,1.12-.33,2.29-.36,3.43-.28,1.37.1,2.68.47,3.77,1.34,1.14.9,1.83,2.1,2.08,3.52.11.62.15,1.26.15,1.88.02,2.51,0,5.02,0,7.53v.46h-4.63v-.42c0-2.46.02-4.93-.01-7.38,0-.49-.1-.98-.27-1.44-.4-1.02-1.6-1.49-2.78-1.14-.83.25-1.48,1.15-1.48,2.08,0,2.61,0,5.22,0,7.83v.47h-4.71Z"/><path id="c" d="m0,12.79c.65-.99,1.26-1.93,1.87-2.86.16-.24.25-.32.54-.09,1.24,1.02,2.65,1.67,4.31,1.58.22-.02.43-.06.63-.14.3-.1.52-.3.54-.65.02-.36-.22-.55-.48-.66-.59-.24-1.2-.43-1.79-.66-.99-.37-2.02-.63-2.91-1.24-1.18-.8-1.78-1.9-1.81-3.35-.03-1.17.31-2.18,1.1-3.01.7-.74,1.61-1.25,2.61-1.46,2.17-.46,4.3-.36,6.3.73.47.26.91.58,1.4.9-.51.78-.97,1.49-1.44,2.21-.15.23-.32.46-.45.7-.11.2-.2.21-.4.09-.78-.49-1.6-.9-2.52-1.04-.41-.06-.82-.05-1.23.02-.46.08-.72.39-.72.69,0,.28.31.65.68.77.55.18,1.1.34,1.64.52,1.15.39,2.3.79,3.3,1.52.86.63,1.33,1.45,1.44,2.52.1.92-.01,1.77-.43,2.59-.55,1.09-1.44,1.79-2.55,2.27-1.39.6-2.87.6-4.33.49-1.62-.12-3.11-.71-4.43-1.68-.31-.22-.59-.5-.89-.77Z"/></svg>